<svg xmlns="http://www.w3.org/2000/svg" version="1.1" width="600px" height="600px" viewBox="0 0 200 200" style="overflow:hidden!important;"><g id="svga-group-wrapper"><g id="svga-group-backs-single"><path id="SvgjsPath15875" d="M0 0h200v200H0V0z" fill="#40c0cb" stroke-width="none" opacity="1"></path></g><g id="svga-group-humanwrap-move" transform="matrix(1,0,0,1,0,0)"><g id="svga-group-humanwrap"><g id="svga-group-hair-back-move" transform="matrix(1,0,0,1,0,0)"><g id="svga-group-hair-back"><path id="SvgjsPath16132" d="m59.7 117.9 3.1 18.6-3.1 20-5.2 16.3-.2 7.8 4.1 2.5h79.2l6.2-3.7v-10.8l-5.1-17.7-.8-18.8 1.8-16.5-68.3 2.3z" fill="#d6c3ab" stroke-width="none" opacity="1"></path></g></g><g id="svga-group-humanbody-back"><path id="SvgjsPath15948" d="m168.2 200-4.6-14.2-34.9-13.4-10.8-9.7-1.4-50.5h-33l-1.4 50.5-10.8 9.7-34.9 13.4-4.6 14.2-3 20h142.4z" fill="#f6e4e2" stroke-width="none" opacity="1"></path><path id="SvgjsPath15949" d="m83.5 112.2-1.4 50.5-10.8 9.7-34.9 13.4-4.6 14.2-3 20H39v-20l1.7-13.3 32.1-12.9 14.1-9.5 2-52.1z" fill="#d7a19b" stroke-width="none" opacity="1"></path></g><g id="svga-group-chinshadow-single"><path id="SvgjsPath15944" d="m117.6 152.2-1.1-40h-33l-1.2 42.5c6.5 1.9 14.9 3.4 14.9 3.4s13.5-2.4 19.5-5.1c.1 0 .4-.3.9-.8z" fill="#c8837c" stroke-width="none" opacity="1"></path></g><g id="svga-group-humanbody-front"></g><g id="svga-group-clothes-single"><path id="SvgjsPath16112" d="m170.3 199.6-4.7-15.1-32.8-12-2-4.2-3.4-1.2.3-1.3-1.2-7.3-2.5-2.4.3-3.2-3.5-5.4h-3.4l-1 2.2-6.4 5.1-10 1.3-10-1.3-6.4-5.1-1-2.2h-3.4l-3.5 5.4.3 3.2-2.5 2.4-1.2 7.3.3 1.3-3.4 1.2-2 4.2-32.8 12-4.7 15.1-2.9 20.4h146.4z" fill="#dcc96b" stroke-width="none" opacity="1"></path><path id="SvgjsPath16113" d="m124.3 152.9-3.5 5.9-.4-5.5-3-1.9 2.6 2.6v6.2l-.4.7-3.6 3.5 4.3-2.6 2.9 5.3 1 8.5-.3-9.2-2.7-5.6 2.7-4.7.4-3.2zm-18.9 34H93.8l-13-4.2-1.7-2.4h3.7l2.4.7 1.6 3.3s-.5-1.8-.8-3l5.7 1.7 11.5.2-8-1-.8-7.4.6-3.9 9.2-.4-9.1-.8.3-2.3.6-8.1s-1.6 8.4-1.4 8.7c0 .1-.1.7-.2 1.6h-.3l-5.8-3.2.9-1.8.6-8.3-1.2 8-.9 1.8-1.1-.6-.8-2.5 1-3.9 3-2.7 9.6 1.5 11.7-1.7 8.4-7.9s-.1-.3-.2-.7h-1.8l-1 2.2-6.4 5.1-10 1.4-10-1.4-6.4-5.1-1-2.2h-3.3l-3.6 5.4.3 3.2-2.5 2.4-1.2 7.3.3 1.4-3.4 1.2-2 4.2-32.8 12-4.7 15-3 20.3h8l3.8-24.3 1.8-3.6c2.8 3.2 7.1 8.4 7.1 8.4l4 13.7.3 5.9H54c-.2-3.4-.4-7.2-.4-7.5 0-.5-5.1-13.2-5.1-13.2l-7.9-7.5.3-.6 32.6-9.6 3.9 1.2 14.9 5.2 13 .2 10.7-3 8.3-7.1-8.3 5.9-10.6 2.8zM92.6 171l1.7-.1c-.3 1.8-.7 3.9-.6 4.1.1.3 1.1 5.2 1.5 7.2l-3.1-.4-6.2-2.8c.2-2.7.6-8.8.6-8.8l.6-1.3 5.5 2.1zm-8.5-3.2 2.2.9-.8 1.7-.4 8.4-2.1-.9-1.3-5.6 2.4-4.5zm63.6 44.7c0 .3-.2 4.1-.4 7.5h2.1l.3-5.9 4-13.7s6.6-7.9 8.8-10.3l-9.7 9.2s-5.1 12.7-5.1 13.2zm14.8-22.4.7-.6c-.1 0-.4.3-.7.6zm-47.9-25.3-.8-3.5h.3-.3l-1.1-4.4.8 4.4-11.4-1-7.6-1.7s7.1 2.9 7.6 2.9h1.9l1.3 5.4.2 7.1 1.4 6.7 1.3 4.7-.6-4.5s-1.1-6.1-1.3-6.6c-.2-.4-.6-7.4-.6-7.4l-1.8-5.5c2.8 0 7.7-.1 9.4-.1l.7 4 1.4 4.7-.8 5 1.3 5.4.7 2.7-.3-3.6-1.1-4.4 1-5.8-1.6-4.5z" fill="#cdb84f" stroke-width="none" opacity="1"></path></g><g id="svga-group-head" transform="matrix(1,0,0,1,0,0)"><g id="svga-group-ears-left-move" transform="matrix(1,0,0,1,0,0)"><g id="svga-group-ears-left"><path id="SvgjsPath15896" d="M65.4 98.1 55.2 87l-5.4 1.3 4.4 13.8-.1 8.8 4.1 8.5 3.8-.6 4.9-9.3z" fill="#f6e4e2" stroke-width="none" opacity="1"></path><path id="SvgjsPath15897" d="m53.8 97.9-2.3-8.8L59 102l-1.4.2 2.1 5.5-.1 5.1-4-3.7-.1-10.8-2.1-4.5z" fill="#d7a19b" stroke-width="none" opacity="1"></path><path id="SvgjsPath15898" d="M51.67 87.86 55.2 87l10.2 11.1 1.5 11.4-4.9 9.3-3.8.6-1.86-3.86c1.4 1.3 2.46 2.36 2.46 2.36l2.5-2s1-10.8 1.1-11.2c.1-.4-5.5-11.8-5.5-11.8l-5.23-5.04z" fill="#e7c1bd" stroke-width="none" opacity="1"></path></g></g><g id="svga-group-ears-right-move" transform="matrix(1,0,0,1,0,0)"><g id="svga-group-ears-right"><path id="SvgjsPath15899" d="M134.6 98.1 144.8 87l5.4 1.3-4.4 13.8.1 8.8-4.1 8.5-3.8-.6-4.9-9.3z" fill="#f6e4e2" stroke-width="none" opacity="1"></path><path id="SvgjsPath15900" d="m146.2 97.9 2.3-8.8L141 102l1.4.2-2.1 5.5.1 5.1 4-3.7.1-10.8 2.1-4.5z" fill="#d7a19b" stroke-width="none" opacity="1"></path><path id="SvgjsPath15901" d="M148.34 87.87 144.8 87l-10.2 11.1-1.5 11.4 4.9 9.3 3.8.6 1.93-4.04c-1.4 1.3-2.53 2.54-2.53 2.54l-2.5-2s-1-10.8-1.1-11.2c-.1-.4 5.5-11.8 5.5-11.8l5.24-5.03z" fill="#e7c1bd" stroke-width="none" opacity="1"></path></g></g><g id="svga-group-faceshape-wrap"><g id="svga-group-faceshape-single"><path id="SvgjsPath15928" d="M136.8 61c-6.7-11.2-19-18.9-19-18.9-7-1.5-17.8-2.2-17.8-2.2s-10.8.8-17.8 2.2c0 0-12.4 7.6-19 18.9 0 0-5 14-5.2 23.9l.7 14.9c2.2 14.2 5.4 25.3 5.4 25.3 4.9 9.4 16.4 20.8 16.4 20.8 6.1 2.6 19.5 5.1 19.5 5.1s13.5-2.4 19.5-5.1c0 0 11.4-11.4 16.4-20.8 0 0 3.2-11.1 5.4-25.3L142 85c-.3-9.9-5.2-24-5.2-24z" fill="#f6e4e2" stroke-width="none" opacity="1"></path><path id="SvgjsPath15929" d="m91.8 141.8 8.6-2 7.7 2-7.8-4.2z" fill="#eed2cf" stroke-width="none" opacity="1"></path><path id="SvgjsPath15930" d="M68.1 124c-1.5-5.2-4.9-23.7-4.9-23.7l-.5-16.5c.5-5.2 4.9-22.5 4.9-22.5 2.2-3.5 16-15.3 16-15.3l16.5-3.2 17.7-.7c-7-1.5-17.8-2.2-17.8-2.2s-10.8.8-17.8 2.2c0 0-12.4 7.6-19 18.9 0 0-5 14-5.2 23.9l.7 14.9c2.2 14.2 5.4 25.3 5.4 25.3 4.9 9.4 16.4 20.8 16.4 20.8 6.1 2.6 19.5 5.1 19.5 5.1s-17.3-5.5-18.3-6.5S68.1 124 68.1 124z" fill="#d7a19b" stroke-width="none" opacity="1"></path></g></g><g id="svga-group-mouth-single-move" transform="matrix(1,0,0,1,0,0)"><g id="svga-group-mouth-single"><path id="SvgjsPath15880" d="m87.96 131.11 4.64-3.77 7.45-2.09 8.12 2.13 5.03 3.98-4.02 5.11-8.96 1.59-8.29-1.72z" fill="#e0a4a0" stroke-width="none" opacity="1" transform="translate(0 3)"></path><path id="SvgjsPath15881" d="M86.41 130.7s5.76 2.19 5.91 2.14c.15-.05 5.99-2.33 5.99-2.33l4.35.08 6.1 2.14 6.76-1.77-6.79 1.06-5.96-2.21h-4.71l-5.81 2.18-5.84-1.29z" fill="#d18580" stroke-width="none" opacity="1" transform="translate(0 3)"></path><path id="SvgjsPath15882" d="m89.94 130.54 3.1-2.47 6.87-1.93-6.73 2.27z" fill="#ffeae9" stroke-width="none" opacity="1" transform="translate(0 3)"></path><path id="SvgjsPath15883" d="m110.8 132.87-2.22 2.85-7.6 1.7 7.26-1.94z" fill="#ffeae9" stroke-width="none" opacity="1" transform="translate(0 3)"></path></g></g><g id="svga-group-eyes-left-move" transform="matrix(1,0,0,1,0,0)"><g id="svga-group-eyes-left"><g id="svga-group-eyesback-left"><path id="SvgjsPath16028" d="m91.9 100.1-5.1-4.5-8.8.1-6.8 3.8s5.7 4.2 7 4.8l8.6-.4 5.1-3.8z" fill="#ffffff" stroke-width="none" opacity="1"></path></g><g id="svga-group-eyesiriswrapper-left" transform="matrix(1,0,0,1,0,0)"><g id="svga-group-eyesiriscontrol-left" transform="matrix(1,0,0,1,0,0)"><g id="svga-group-eyesiris-left"><path id="SvgjsPath15964" d="m80.1 103.9-2.4-1.7-.9-2.8.9-2.7 2.4-1.8H83l2.3 1.8.9 2.7-.9 2.8-2.3 1.7z" fill="#3c8d8e" stroke-width="none" opacity="1"></path><path id="SvgjsPath15965" d="m82.9 95.2 2.2 1.6.8 2.6-.8 2.6-2.2 1.6h-2.8l-2.2-1.6-.8-2.6.8-2.6 2.2-1.6h2.8m.2-.5H80l-2.5 1.8-.9 2.9.9 2.9 2.5 1.8h3.1l2.5-1.8.9-2.9-.9-2.9-2.5-1.8z" fill="#196e6f" stroke-width="none" opacity="1"></path><path id="SvgjsPath15966" d="M82.3 97.1h-1.5l-1.3.9-.4 1.4.4 1.5 1.3.9h1.5l1.2-.9.5-1.5-.5-1.4z" fill="#000000" stroke-width="none" opacity="1"></path><path id="SvgjsPath15967" d="m82.8 103.6.1-.7.8.2.1-.8.8.2s-.2-.7-.1-.7.7.1.7.1l-.4-.8.7-.2-.4-.8.8-.3-.6-.4.4-.6-.6-.3.3-.8-.6-.2.2-.7h-.5l-.1-.4h-.3l-.1-.5 1.2.6.7 1.7.4 1.4-.1.5-.7 2.3-1.8 1.4-.8.5-2.1-.2.4-.6.5.3.5-.4.6.2z" fill="#196e6f" stroke-width="none" opacity="1"></path><path id="SvgjsPath15968" d="m77.8 100.6 1.1-.3v.2l-1.1.3v-.2zm.8-1.6c-.4-.1-.9-.1-1-.1v-.2s.1 0 1 .1v.2zm.5-2.6.1-.1.6.7-.1.1-.6-.7zm2-.6h.2v.8h-.2v-.8zm2.5 1.6.6-.6.1.1-.6.6-.1-.1zm.8 1.5.6-.1v.2h-.6v-.1zm-.2 1.5.1-.1.6.3-.1.1-.6-.3zm-1.3 1.4.1-.1.4.8-.1.1-.4-.8zm-2.9 1.3.4-1.1.2.1-.4 1.1-.2-.1zm-1-1.1.3-.4.1.1-.3.4-.1-.1z" fill="#196e6f" stroke-width="none" opacity="1"></path><path id="SvgjsPath15969" d="m81.2 97.2-.9-.3-.7.7.2.8.9.3.7-.6z" fill="#ffffff" stroke-width="none" opacity="1"></path><path id="SvgjsPath15970" d="m83.1 101-.5-.3-.6.3v.6l.6.3.5-.3z" fill="#ffffff" stroke-width="none" opacity="1"></path></g></g></g><g id="svga-group-eyesfront-left"><path id="SvgjsPath16036" d="M67.97 94.46v11.11l7.69 7.86h10.87l7.69-7.86V94.46l-7.69-7.86H75.66l-7.69 7.86zm3.25 4.89 6.84-3.78 8.83-.05 5.05 4.54-5.05 3.78-8.62.36c-1.34-.66-7.05-4.85-7.05-4.85z" fill="#f6e4e2" stroke-width="none" opacity="1"></path><path id="SvgjsPath16037" d="m91.94 100.07-5.06-4.54-8.82.05-6.84 3.77-1.53.02-1.72-.76 3.63-.89 6.18-3.06 9.49.07 4.08 3.94z" fill="#d7a19b" stroke-width="none" opacity="1"></path><path id="SvgjsPath16038" d="m72.17 100.51-1.61-1.16-1.86-1.34 2.64.92 1.57-.84a24 24 0 0 0-.61-.22l-1.15-1.38 1.95.99.63.16 1.62-.87-.64-.36-.73-1.15 1.38.99.6.19 1.37-.74-.55-.33-.46-.77.84.65.6.21.09-.05 9.11-.19 4.98 4.83-5.24-4.2h-8.66l-6.38 3.66 6.6 4.67 8.52-.52 3.96-2.69-3.77 3.08-8.76.39-.54-.35-.81.76.21-.42.39-.47-1-.65-.45.32-.71.54.35-.52.6-.49-.99-.64-.85.48-.89.64.66-.79.75-.53-1.12-.73-1.01.47-.85.5.58-.71.89-.5-.86-.56-.04-.03-.75.2-1.33.6.89-.71.84-.34z" fill="#210d34" stroke-width="none" opacity="1"></path></g></g></g><g id="svga-group-eyes-right-move" transform="matrix(1,0,0,1,0,0)"><g id="svga-group-eyes-right"><g id="svga-group-eyesback-right"><path id="SvgjsPath16029" d="m108.1 100.1 5.1-4.5 8.8.1 6.8 3.8s-5.7 4.2-7 4.8l-8.6-.4-5.1-3.8z" fill="#ffffff" stroke-width="none" opacity="1"></path></g><g id="svga-group-eyesiriswrapper-right" transform="matrix(1,0,0,1,0,0)"><g id="svga-group-eyesiriscontrol-right" transform="matrix(1,0,0,1,0,0)"><g id="svga-group-eyesiris-right"><path id="SvgjsPath15971" d="m117 103.9-2.3-1.7-.9-2.8.9-2.7 2.3-1.8h2.9l2.4 1.8.9 2.7-.9 2.8-2.4 1.7z" fill="#3c8d8e" stroke-width="none" opacity="1"></path><path id="SvgjsPath15972" d="m119.8 95.2 2.2 1.6.8 2.6-.8 2.6-2.2 1.6H117l-2.2-1.6-.8-2.6.8-2.6 2.2-1.6h2.8m.2-.5h-3.1l-2.5 1.8-.9 2.9.9 2.9 2.5 1.8h3.1l2.5-1.8.9-2.9-.9-2.9-2.5-1.8z" fill="#196e6f" stroke-width="none" opacity="1"></path><path id="SvgjsPath15973" d="M119.2 97.1h-1.5l-1.2.9-.5 1.4.5 1.5 1.2.9h1.5l1.3-.9.4-1.5-.4-1.4z" fill="#000000" stroke-width="none" opacity="1"></path><path id="SvgjsPath15974" d="m119.7 103.6.1-.7.8.2.1-.8.8.2s-.2-.7-.1-.7.7.1.7.1l-.4-.8.7-.2-.4-.9.8-.3-.6-.4.4-.6-.6-.3.3-.8-.6-.2.2-.7h-.5l-.1-.4h-.3l-.1-.5 1.2.6.7 1.7.4 1.4-.1.5-.7 2.3-1.8 1.4-.8.5-2.1-.2.4-.6.5.3.5-.4.6.3z" fill="#196e6f" stroke-width="none" opacity="1"></path><path id="SvgjsPath15975" d="m114.7 100.6 1.1-.3v.2l-1.1.3v-.2zm.8-1.6c-.4-.1-.9-.1-1-.1v-.2s.1 0 1 .1v.2zm.5-2.6.1-.1.6.7-.1.1-.6-.7zm2-.6h.2v.8h-.2v-.8zm2.5 1.6.6-.6.1.1-.6.6-.1-.1zm.8 1.5.6-.1v.2l-.6.1v-.2zm-.2 1.5.1-.1.6.3-.1.1-.6-.3zm-1.2 1.4.1-.1.4.8-.1.1-.4-.8zm-3 1.3.4-1.1.2.1-.4 1.1-.2-.1zm-1-1.1.3-.4.1.1-.3.4-.1-.1z" fill="#196e6f" stroke-width="none" opacity="1"></path><path id="SvgjsPath15976" d="m118.1 97.2-.9-.3-.6.7.2.8.8.3.7-.6z" fill="#ffffff" stroke-width="none" opacity="1"></path><path id="SvgjsPath15977" d="m120 101-.5-.3-.5.3v.6l.5.3.5-.3z" fill="#ffffff" stroke-width="none" opacity="1"></path></g></g></g><g id="svga-group-eyesfront-right"><path id="SvgjsPath16039" d="M124.34 86.6h-10.87l-7.69 7.86v11.11l7.69 7.86h10.87l7.69-7.86V94.46l-7.69-7.86zm-2.6 17.6-8.62-.36-5.05-3.78 5.05-4.54 8.83.05 6.84 3.78c-.01 0-5.72 4.19-7.05 4.85z" fill="#f6e4e2" stroke-width="none" opacity="1"></path><path id="SvgjsPath16042" d="m108.06 100.07 5.06-4.54 8.82.05 6.84 3.77 1.53.02 1.72-.76-3.63-.89-6.18-3.06-9.49.07-4.08 3.94z" fill="#d7a19b" stroke-width="none" opacity="1"></path><path id="SvgjsPath16043" d="m127.83 100.51 1.61-1.16 1.86-1.34-2.64.92-1.57-.84a24 24 0 0 1 .61-.22l1.15-1.38-1.95.99-.63.16-1.62-.87.64-.36.73-1.15-1.38.99-.6.19-1.37-.74.55-.33.46-.77-.84.65-.6.21-.09-.05-9.11-.19-4.98 4.83 5.24-4.2h8.66l6.38 3.66-6.6 4.67-8.52-.52-3.96-2.69 3.77 3.08 8.76.39.54-.35.81.76-.21-.42-.39-.47 1-.65.45.32.71.54-.35-.52-.6-.49.99-.64.86.46.89.64-.66-.79-.75-.53 1.12-.73 1.01.47.85.5-.58-.71-.89-.5.86-.56.04-.03.75.2 1.33.6-.89-.71-.85-.32z" fill="#210d34" stroke-width="none" opacity="1"></path></g></g></g><g id="svga-group-facehighlight-single"></g><g id="svga-group-eyebrows-left-move" transform="matrix(1,0,0,1,0,0)"><g id="svga-group-eyebrows-left-rotate" transform="matrix(1,1.7453292519943295e-9,-1.7453292519943295e-9,1,1.531526407916317e-7,-1.3892820049932197e-7)"><g id="svga-group-eyebrows-left"><path id="SvgjsPath16090" d="m91.7 88.1.1 1.9-1.7 1.7-1.8-.7s-5.5-2.8-5.8-2.8S76 88 76 88l-7.3 2.9-1.3-1.1 6.1-5.1 6.6-.9 7.9 2.1 3.7 2.2z" fill="#decfbc" stroke-width="none" opacity="1"></path><path id="SvgjsPath16091" d="m80.1 83.8 1 .3 1.7 3.6-3-3.8.3-.1zm-10.8 4.4 4.1-.6-5.5 1.8 1.4-1.2zm20.3 2.1 1-2.9.9.5-1.9 2.4zm-.4-3.8-.6 3-.4-3.6 1 .6zM73.1 85l2.3.5-3.2.2.9-.7zm4-.8 2 2-3.1-1.9 1.1-.1z" fill="#ede8e1" stroke-width="none" opacity="1"></path></g></g></g><g id="svga-group-eyebrows-right-move" transform="matrix(1,0,0,1,0,0)"><g id="svga-group-eyebrows-right-rotate" transform="matrix(1,1.7453292519943295e-9,-1.7453292519943295e-9,1,1.531526407916317e-7,-2.1022492546762805e-7)"><g id="svga-group-eyebrows-right"><path id="SvgjsPath16092" d="m108.3 88.1-.1 1.9 1.7 1.7 1.8-.7s5.5-2.8 5.8-2.8 6.5-.2 6.5-.2l7.4 2.9 1.3-1.1-6.1-5.1-6.6-.9-7.9 2.1-3.8 2.2z" fill="#decfbc" stroke-width="none" opacity="1"></path><path id="SvgjsPath16093" d="m119.9 83.8-1 .3-1.7 3.6 3-3.8-.3-.1zm10.8 4.4-4.1-.6 5.5 1.8-1.4-1.2zm-20.3 2.1-1-2.9-.9.5 1.9 2.4zm.4-3.8.6 3 .4-3.6-1 .6zm16.1-1.5-2.3.5 3.2.2-.9-.7zm-4-.8-2 2 3.2-1.8-1.2-.2z" fill="#ede8e1" stroke-width="none" opacity="1"></path></g></g></g><g id="svga-group-nose-single-move" transform="matrix(1,0,0,1,0,0)"><g id="svga-group-nose-single"><path id="SvgjsPath16072" d="m97.84 96.62-2.05 5.46.9 5.66-1.35 4.37h2.83l1.99-1.35-2.44.58-1.16-.19 1.03-3.93-1.16-5.46 1.61-4.24z" fill="#d7a19b" stroke-width="none" opacity="1" transform="translate(0 2)"></path><path id="SvgjsPath16073" d="m108.98 115.84-3.07-3.47.26.96 2.11 2.57-.26 3.15-2.88.84.26-.71 1.86-.71.19-.51-2.56.26-3.01 4.24-1.86.32-1.76-.32-3.01-4.24-2.56-.26.19.51 1.86.71.26.71-2.88-.84-.26-3.15 2.11-2.57.26-.96-3.07 3.47s-.19 3.79.06 3.79c.26 0 5.06 1.22 5.06 1.22l1.73 2.51 2.02.26 2.11-.26 1.73-2.51s4.8-1.22 5.06-1.22c.24 0 .05-3.79.05-3.79z" fill="#d7a19b" stroke-width="none" opacity="1" transform="translate(0 2)"></path><path id="SvgjsPath16074" d="m102.26 96.76 2.05 5.13-.86 3.36.13-3.88z" fill="#d7a19b" stroke-width="none" opacity="1" transform="translate(0 2)"></path><path id="SvgjsPath16075" d="M97.11 113H104l3.09 2.97-4.51-.12-1.78 2.14-3.69-4.99z" fill="#fef7f6" stroke-width="none" opacity="1" transform="translate(0 2)"></path></g></g><g id="svga-group-hair-front"><path id="SvgjsPath16129" d="m63 100.8-5.7-12.3-1.5-8.4 2-6.4.9-6.2 2.4-1.9.1-6.3 3.1-3.2 2.2-5.2 3.4-.7 2.3-4.3 3.1-.4 3.2-4 6-.1 4.1-2.8 6.2.4 4.8-2.1 5.6 2.5 5.3-1.2 4.6 3.1 5.5-.4 4.1 3.8 3-.1 2.5 4.7 3.8 1.2 1.9 5.5 3.1 1.7.4 7.6 2.5 1.3.2 6.6 2.3 4-.4 10.6-1.2 3.8-4.2 9.2-1-10.7-2.7-2.3.1-8.1-3.2-1.9.1-5.9-3.9-.6-.4-5.4-4.7.8-1.3-4.8-4.6.6-3.6-3.9-4.6.5-4.1-3.3-4.3 2.3-5.3-1.9-3.9 3.2-4.6-.4-3.5 3.3-5-.5-1.3 3.8-4.2 1.8-.1 4-3.9 1.8.4 5.4-3.7 2.9.5 6.3-2.9 3.2z" fill="#e6dbce" stroke-width="none" opacity="1"></path><path id="SvgjsPath16130" d="M95.1 55c-.5-2.5-.6-5-.7-7.5-.1-2.5 0-5 .3-7.5.5 2.5.6 5 .7 7.5 0 2.4 0 4.9-.3 7.5zm-8.7 3.1c-1.2-2.8-2.1-5.8-2.8-8.8v-.2c.1-2.3.3-4.7.7-7 .2 2.4.3 4.7.3 7.1v-.1c.8 2.9 1.5 5.9 1.8 9zm-8.3 2.7c-.6-1.3-1-2.6-1.3-3.9-.4-1.3-.7-2.7-1-4-.1-2-.2-4.1 0-6.2.5 2 .8 4.1 1 6.1v-.1c.3 1.3.6 2.7.9 4 .1 1.3.3 2.7.4 4.1zM71.9 65c-.5-1.3-.8-2.6-1.2-4-.3-1.3-.6-2.7-.8-4 0-1.9 0-3.8.2-5.7.4 1.9.6 3.8.7 5.7v-.1c.3 1.3.5 2.7.7 4.1.3 1.3.4 2.6.4 4zm-3.8 6.6c-1.3-2.5-2.3-5.2-3.2-7.8-.3-2.2-.5-4.5-.4-6.8.7 2.2 1.1 4.4 1.4 6.7v-.1c.8 2.5 1.7 5.2 2.2 8zm-3.6 8.2c-.9-2.1-1.5-4.3-2.1-6.5-.5-2.2-1-4.4-1.1-6.7.9 2.1 1.5 4.3 2.1 6.5.5 2.1 1 4.4 1.1 6.7zm-2 9.9c-.5-1.3-1-2.5-1.3-3.8-.4-1.3-.8-2.6-1.1-3.9-.7-2.6-1.2-5.2-1.5-7.9 1.1 2.5 1.8 5.1 2.5 7.7.5 2.6 1.1 5.2 1.4 7.9zM104.9 55c.5-2.5.6-5 .7-7.5.1-2.5 0-5-.3-7.5-.5 2.5-.6 5-.7 7.5 0 2.4 0 4.9.3 7.5zm8.7 3.1c1.2-2.8 2.1-5.8 2.8-8.8v-.2c-.1-2.3-.3-4.7-.7-7-.2 2.4-.3 4.7-.3 7.1v-.1c-.8 2.9-1.5 5.9-1.8 9zm8.3 2.7c.6-1.3 1-2.6 1.3-3.9.4-1.3.7-2.7 1-4 .1-2 .2-4.1 0-6.2-.5 2-.8 4.1-1 6.1v-.1c-.3 1.3-.6 2.7-.9 4-.1 1.3-.3 2.7-.4 4.1zm6.2 4.2c.5-1.3.8-2.6 1.2-4 .3-1.3.6-2.7.8-4 0-1.9 0-3.8-.2-5.7-.4 1.9-.6 3.8-.7 5.7v-.1c-.3 1.3-.5 2.7-.7 4.1-.3 1.3-.4 2.6-.4 4zm3.8 6.6c1.3-2.5 2.3-5.2 3.2-7.8.3-2.2.5-4.5.4-6.8-.6 2.2-1.1 4.4-1.4 6.7v-.1c-.8 2.5-1.7 5.2-2.2 8zm3.6 8.2c.9-2.1 1.5-4.3 2.1-6.5.5-2.2 1-4.4 1.1-6.7-.9 2.1-1.5 4.3-2.1 6.5-.5 2.1-1 4.4-1.1 6.7zm2 9.9c.5-1.3.9-2.5 1.3-3.8.4-1.3.8-2.6 1.1-3.9.7-2.6 1.2-5.2 1.6-7.9-1.1 2.5-1.8 5.1-2.5 7.7-.6 2.6-1.2 5.2-1.5 7.9zm-75.6 75.4-3 17.4 2.6 13.4 3.1 2.9 5.3-.7.7-4.9-3.5-13 1.5-18.2.3 17.7 5.3 17.9s4.2 1.2 4.3.8 2.8-2.4 2.8-2.4l-1.5-11-5.4-21.2-2.2-18.8-7.9-3-2.4 23.1zm62.5-18.5-3 22.2-.7 12.2 1.1 5.7 3.7.8 2.9-4.2-.1-8.8-.6-7.1s-.6-5.2-.3-4.4c.3.8 3 15.1 3 15.1l-1.6 14.4 2.6 3.8 2.3.5 2.2-2.6 1.2-7.1.3 7.5 1.2 2.7 2.9.3 2.6-2.7-.1-9.2-.3-7.7-.4-7.7-5.5-17.7-.3-15.9-5.1 8-5.4 1.9h-2.6z" fill="#d6c3ab" stroke-width="none" opacity="1"></path><path id="SvgjsPath16131" d="M66.1 142.2c-.1 2.9-.3 5.9-.7 8.8-.3 2.9-.8 5.8-1.2 8.7-.3 1.4-.5 2.9-.7 4.3-.3 1.4-.5 2.9-.8 4.3-.6 2.9-1.2 5.7-2.1 8.5 0-2.9.2-5.9.5-8.8.3-2.9.6-5.8 1.1-8.7.5-2.9 1-5.7 1.7-8.6.6-2.9 1.3-5.7 2.2-8.5zm2.7 2.8c0 3.4 1 16.2.8 19.6v-.1l1.1 15.6v-.2c.7 2.6 1.4 5.3 2 7.9.6 2.6 1.2 5.3 1.8 8-1-2.5-2-5.1-2.9-7.7-.9-2.6-1.8-5.2-2.6-7.8v-.2c-.3-2.6-.6-5.2-.8-7.8-.2-2.6-.3-5.2-.5-7.9v-.2c.4-3.1.5-15.9 1.1-19.2zm56.3 2.3c.4 2.6-.2 6.2 0 8.8.2 2.6-1.3 5.4-1.2 8 0 2.6-.2 5.2-.3 7.8-.2 2.6-.4 5.2-.7 7.8v-.1c.2 1.8.5 3.6.6 5.3-.6-1.7-1.2-3.4-1.7-5.1v-.1c-.1-2.6-.1-5.2-.1-7.8.1-2.7 3.1-22 3.4-24.6zm2.5-2.8c.3 1.9.6 3.8.9 5.6.2 1.9.5 3.8.7 5.6.4 3.8.8 7.5 1.1 11.3v-.2c.5 1.8 1 3.7 1.4 5.5.5 1.8.9 3.7 1.4 5.5l.1.2v.2c-.4 2.1-.8 4.1-1.2 6.2-.4 2.1-.9 4.1-1.4 6.2v-.1l.9 3c-.5-.9-1-1.9-1.4-2.8v-.2l.6-6.3c.3-2.1.5-4.2.8-6.3v.4c-.5-1.8-1.1-3.6-1.5-5.5-.5-1.8-1-3.7-1.5-5.5v-.2c-.3-3.8-.5-7.6-.6-11.3-.1-1.9-.1-3.8-.2-5.7-.2-1.8-.2-3.7-.1-5.6zm5.8 13.1c.5 1.7.9 3.4 1.2 5.1.4 1.7.7 3.4 1 5.2v-.1c.6 1.6 1.2 3.2 1.7 4.7.5 1.6 1.1 3.2 1.6 4.8l.1.1v.1l.1 3.8v3.8c0 2.5 0 5-.1 7.6v-.1c.3 1.3.5 2.6.8 3.9-.6-1.2-1.1-2.4-1.6-3.6v-.1c-.3-2.5-.5-5-.7-7.5l-.2-3.8-.2-3.8.1.3c-.5-1.6-1-3.2-1.6-4.8-.5-1.6-1-3.2-1.4-4.8v-.1c-.2-1.8-.3-3.5-.4-5.3-.3-1.9-.4-3.7-.4-5.4zm3.7-21.1c.6 5.4.9 10.7 1.2 16.1v-.2l1.5 4.4c.5 1.5 1 2.9 1.4 4.4.9 2.9 1.9 5.9 2.8 8.9l.1.1v.1c0 1.8-.1 3.6-.1 5.4 0 1.8-.1 3.6-.2 5.4-.1 3.6-.4 7.2-.6 10.8v.1l-1.2 2.3.8-2.4v.1c-.2-3.6-.4-7.2-.4-10.8 0-1.8-.1-3.6-.1-5.4 0-1.8-.1-3.6 0-5.4v.3c-.9-2.9-1.9-5.9-2.8-8.9-.4-1.5-.9-3-1.3-4.4l-1.3-4.5v-.2c-.2-5.4-.1-10.8.2-16.2zm-64.8 16.7c.1 2.5 1.8 10.9 1.7 13.3l1.1 3 1.1 3.1c.4 1 .7 2.1 1 3.1.3 1.1.7 2.1 1 3.2.3 1.1.6 2.1.9 3.2v.1c.2 1.6.4 3.3.5 5 .1 1.7.2 3.3.3 5-.5-1.6-.9-3.2-1.3-4.8-.4-1.6-.8-3.2-1.1-4.9v.1c-.4-1-.8-2.1-1.1-3.1-.4-1-.7-2.1-1.1-3.1s-.7-2.1-1.1-3.1l-1-3.2-.1-.2-.8-3.2c.3-2.5-.5-11.1 0-13.5z" fill="#ede8e1" stroke-width="none" opacity="1"></path></g><g id="svga-group-glasses-single-move" transform="matrix(1,0,0,1,0,0)"><g id="svga-group-glasses-single"></g></g></g></g></g><rect id="svga-credit-rect" width="200" height="15" x="0" y="185" fill="#ecf0f1" opacity="0.5" style="display: none;"></rect><text id="svga-credit-text" font-family="Avenir Next, Roboto, Helvetica, Arial, sans-serif" font-size="10px" text-anchor="start" font-weight="400" size="10px" anchor="start" weight="400" fill="#333333" x="33.402061462402344" y="182.71133995056152" style="display: none;"><tspan id="SvgjsTspan15874" dy="13" x="33.402061462402344">Created on AvatarMaker.com</tspan></text></g><defs id="SvgjsDefs15826"></defs></svg>